<svg xmlns="http://www.w3.org/2000/svg" viewBox="0 0 22 22">
  <!-- VOX, contours vectorises depuis Orbitron 900 (SIL OFL 1.1),
       la police display du site ; couleurs de docs/index.html -->
  <!-- transmission coupee : rouge, entaille diagonale en negatif -->
  <rect width="22" height="22" rx="2" fill="#0a0a0c"/>
  <path fill="#f44336" fill-rule="evenodd" d="M1.6 7.3L3.5 7.3L6.6 12.7L9.7 7.3L11.6 7.3L9.3 11.2L5.6 14.2Z"/>
  <path fill="#f44336" fill-rule="evenodd" d="M15.5 8.5L15.5 8.8L15.5 13.2L15.5 13.6L15.3 14.0L15.1 14.3L14.8 14.5L14.4 14.7L14.0 14.7L9.6 14.7L9.2 14.7L8.9 14.5L8.5 14.3L8.5 14.2L9.8 13.1L13.9 13.1L13.9 9.8ZM14.2 7.3L12.2 8.9L9.7 8.9L9.7 10.9L8.1 12.2L8.1 8.8L8.1 8.4L8.3 8.0L8.5 7.7L8.9 7.5L9.2 7.3L9.6 7.3L14.0 7.3Z"/>
  <path fill="#f44336" fill-rule="evenodd" d="M20.4 7.3L20.4 7.8L17.7 11.0L20.4 14.2L20.4 14.7L18.7 14.7L16.7 12.3L14.6 14.7L12.9 14.7L12.9 14.2L15.6 11.0L14.3 9.5L15.6 8.4L16.7 9.7L18.7 7.3ZM14.2 7.3L13.2 8.1L12.9 7.8L12.9 7.3Z"/>
</svg>
